<svg width="601" height="606" viewBox="0 0 601 606" fill="none" xmlns="http://www.w3.org/2000/svg">
<rect x="1" width="600" height="600" fill="white"/>
<path d="M0 100C0 44.7715 44.7715 0 100 0C155.228 0 200 44.7715 200 100V200H100C44.7715 200 0 155.228 0 100Z" fill="#B8BFEC"/>
<path d="M1 200H51C133.843 200 201 267.157 201 350V400H1V200Z" fill="#D9FB99"/>
<path d="M200 206H400V406H350C267.157 406 200 338.843 200 256V206Z" fill="#B8BFEC"/>
<path d="M199 406H249C331.843 406 399 473.157 399 556V606H199V406Z" fill="#D9FB99"/>
<path d="M401 6H601V206H551C468.157 206 401 138.843 401 56V6Z" fill="#D9FB99"/>
<path d="M399 406H599V606H549C466.157 606 399 538.843 399 456V406Z" fill="#2563EB"/>
</svg>
